<svg height='100px' width='100px'  fill="#1A1A1A" xmlns:dc="http://purl.org/dc/elements/1.1/" xmlns:cc="http://creativecommons.org/ns#" xmlns:rdf="http://www.w3.org/1999/02/22-rdf-syntax-ns#" xmlns:svg="http://www.w3.org/2000/svg" xmlns="http://www.w3.org/2000/svg" xmlns:sodipodi="http://sodipodi.sourceforge.net/DTD/sodipodi-0.dtd" xmlns:inkscape="http://www.inkscape.org/namespaces/inkscape" version="1.1" x="0px" y="0px" viewBox="0 0 100 100"><g transform="translate(0,-952.36218)"><path style="text-indent:0;text-transform:none;direction:ltr;block-progression:tb;baseline-shift:baseline;color:#000000;enable-background:accumulate;" d="m 50,956.36215 c -25.3695,0 -46,20.63057 -46,45.99995 0,25.3696 20.6305,46.0001 46,46.0001 25.3695,0 46,-20.6305 46,-46.0001 0,-25.36938 -20.6305,-45.99995 -46,-45.99995 z m 0,6 c 22.1269,0 40,17.87323 40,39.99995 0,22.127 -17.8731,40.0001 -40,40.0001 -22.1269,0 -40,-17.8731 -40,-40.0001 0,-22.12672 17.8731,-39.99995 40,-39.99995 z m -17,20.99996 c -3.3138,0 -6,2.6864 -6,6 0,3.3137 2.6862,6 6,6 3.3137,0 6,-2.6863 6,-6 0,-3.3136 -2.6863,-6 -6,-6 z m 34,0 c -3.3137,0 -6,2.6864 -6,6 0,3.3137 2.6863,6 6,6 3.3138,0 6,-2.6863 6,-6 0,-3.3136 -2.6862,-6 -6,-6 z m -47,17.99999 c -1.8601,0.016 -3.0454,1.8788 -3,3.1876 1.1402,17.1833 15.521,30.8125 33,30.8125 17.479,0 31.8599,-13.6292 33,-30.8125 0.102,-1.6321 -1.3648,-3.1906 -3,-3.1876 l -60,0 z m 3.5312,6.0001 52.9376,0 c -2.3726,12.4981 -13.225,22 -26.4688,22 -13.2438,0 -24.096,-9.5019 -26.4688,-22 z" fill="#1A1A1A" fill-opacity="1" stroke="none" marker="none" visibility="visible" display="inline" overflow="visible"></path></g></svg>